cover

Genre: Horror
Language:English
IMDb:http://www.imdb.com/title/tt1075749/
Source:720p.BluRay.x264-CiNEFiLE

General
Complete name :Reykjavik.Whale.Watching.Massacre.2009.720p.BRRip.H264.Feel-Free
Format : MPEG-4
Format profile : Base Media
Codec ID : isom
File size : 1.04 GiB
Duration : 1h 23mn
Overall bit rate : 1 788 Kbps
Video #1
Codec ID : avc1
Codec ID/Info : Advanced Video Coding
Duration : 1h 23mn
Bit rate mode : Variable
Bit rate : 1 464 Kbps
Width : 1 280 pixels
Height : 544 pixels
Display aspect ratio : 2.35:1
Frame rate mode : Constant
Frame rate : 23.976 fps
Resolution : 24 bits
Colorimetry : 4:2:0
Scan type : Progressive
Bits/(Pixel*Frame) : 0.088
Stream size : 876 MiB (82%)
Audio #2
ID : 2
Format : AAC
Format/Info : Advanced Audio Codec
Format version : Version 4
Format profile : LC
Format settings, SBR : No
Codec ID : 40
Duration : 1h 23mn
Bit rate mode : Variable
Bit rate : 320 Kbps
Channel(s) : 6 channels
Channel positions : Front: L C R, Rear: L R, LFE
Sampling rate : 48.0 KHz
Resolution : 16 bits
Stream size : 191 MiB (18%)

Plot:
An epic tale about a group of whale watchers, whose ship breaks down and they get picked up by a whale fisher vessel. The Fishbillies on the vessel has just gone bust, and everything goes out of control.

screens
 
http://img816.imageshack.us/img816/6742/vlcsnap2010102900h13m05.jpg 
http://img214.imageshack.us/img214/8563/vlcsnap2010102900h13m50.jpg 
http://img217.imageshack.us/img217/9984/vlcsnap2010102900h14m05.jpg 
http://img143.imageshack.us/img143/9718/vlcsnap2010102900h14m37.jpg 
http://img12.imageshack.us/img12/6125/vlcsnap2010102900h16m10.jpg